<svg width="24" height="24" viewBox="0 0 24 24" fill="none" xmlns="http://www.w3.org/2000/svg">
<g id="24 Universal / ic_24_arrow_right_square">
<path id="Combined Shape" fill-rule="evenodd" clip-rule="evenodd" d="M13 4H7C5.34315 4 4 5.34315 4 7V17C4 18.6569 5.34315 20 7 20H13H14C14.5523 20 15 19.5523 15 19C15 18.4477 14.5523 18 14 18H13H7C6.44772 18 6 17.5523 6 17V7C6 6.44772 6.44772 6 7 6H13H14C14.5523 6 15 5.55228 15 5C15 4.44772 14.5523 4 14 4H13ZM13 11C12.4477 11 12 11.4477 12 12C12 12.5523 12.4477 13 13 13H18.6514L17.0431 14.6083C16.6526 14.9989 16.6526 15.632 17.0431 16.0226C17.4336 16.4131 18.0668 16.4131 18.4573 16.0226L21.6994 12.7805C21.8768 12.603 21.9737 12.3754 21.9898 12.1433C21.9965 12.0965 22 12.0486 22 12C22 11.9488 21.9962 11.8985 21.9887 11.8494C21.9619 11.637 21.8669 11.4315 21.7038 11.2683L18.4617 8.02629C18.0712 7.63577 17.438 7.63577 17.0475 8.02629C16.657 8.41682 16.657 9.04998 17.0475 9.44051L18.607 11H13Z" fill="#08A652"/>
</g>
</svg>
