<svg width="24" height="24" viewBox="0 0 24 24" fill="none" xmlns="http://www.w3.org/2000/svg">
<rect width="24" height="24" fill="#1E1E1E"/>
<g id="User Profile" clip-path="url(#clip0_0_1)">
<rect width="375" height="1088" transform="translate(-14 -52)" fill="#FAFAFA"/>
<g id="Top Section">
<g id="Background" filter="url(#filter0_d_0_1)">
<rect x="-14" y="-52" width="375" height="306" fill="white"/>
</g>
</g>
<g id="App Bar">
<g id="Content">
<g id="Left" clip-path="url(#clip1_0_1)">
<g id="24 Universal / ic_24_cross">
<path id="Shape" fill-rule="evenodd" clip-rule="evenodd" d="M18.3 5.71C17.91 5.32 17.28 5.32 16.89 5.71L12 10.59L7.11 5.7C6.72 5.31 6.09 5.31 5.7 5.7C5.31 6.09 5.31 6.72 5.7 7.11L10.59 12L5.7 16.89C5.31 17.28 5.31 17.91 5.7 18.3C6.09 18.69 6.72 18.69 7.11 18.3L12 13.41L16.89 18.3C17.28 18.69 17.91 18.69 18.3 18.3C18.69 17.91 18.69 17.28 18.3 16.89L13.41 12L18.3 7.11C18.68 6.73 18.68 6.09 18.3 5.71Z" fill="#08A652"/>
</g>
</g>
</g>
</g>
</g>
<defs>
<filter id="filter0_d_0_1" x="-30" y="-64" width="407" height="338" filterUnits="userSpaceOnUse" color-interpolation-filters="sRGB">
<feFlood flood-opacity="0" result="BackgroundImageFix"/>
<feColorMatrix in="SourceAlpha" type="matrix" values="0 0 0 0 0 0 0 0 0 0 0 0 0 0 0 0 0 0 127 0" result="hardAlpha"/>
<feOffset dy="4"/>
<feGaussianBlur stdDeviation="8"/>
<feColorMatrix type="matrix" values="0 0 0 0 0 0 0 0 0 0 0 0 0 0 0.0784314 0 0 0 0.08 0"/>
<feBlend mode="normal" in2="BackgroundImageFix" result="effect1_dropShadow_0_1"/>
<feBlend mode="normal" in="SourceGraphic" in2="effect1_dropShadow_0_1" result="shape"/>
</filter>
<clipPath id="clip0_0_1">
<rect width="375" height="1088" fill="white" transform="translate(-14 -52)"/>
</clipPath>
<clipPath id="clip1_0_1">
<rect width="325" height="40" fill="white" transform="translate(-14 -8)"/>
</clipPath>
</defs>
</svg>
