<svg width="36" height="36" viewBox="0 0 36 36" fill="none" xmlns="http://www.w3.org/2000/svg">
<g id=" 36 Fill / ic_36_percent_fill">
<path id="Shape" fill-rule="evenodd" clip-rule="evenodd" d="M36 18C36 27.941 27.941 36 18 36C8.059 36 0 27.941 0 18C0 8.059 8.059 0 18 0C27.941 0 36 8.059 36 18ZM12 9C14.2093 9 16 10.7907 16 13C16 15.2093 14.2093 17 12 17C9.79072 17 8 15.2093 8 13C8 10.7907 9.79072 9 12 9ZM12 11C10.8953 11 10 11.8953 10 13C10 14.1047 10.8953 15 12 15C13.1047 15 14 14.1047 14 13C14 11.8953 13.1047 11 12 11ZM24 19C26.2093 19 28 20.7907 28 23C28 25.2093 26.2093 27 24 27C21.7907 27 20 25.2093 20 23C20 20.7907 21.7907 19 24 19ZM24 21C22.8953 21 22 21.8953 22 23C22 24.1047 22.8953 25 24 25C25.1047 25 26 24.1047 26 23C26 21.8953 25.1047 21 24 21ZM10.7071 26.7071L26.7071 10.7071C27.0976 10.3166 27.0976 9.68342 26.7071 9.29289C26.3166 8.90237 25.6834 8.90237 25.2929 9.29289L9.29289 25.2929C8.90237 25.6834 8.90237 26.3166 9.29289 26.7071C9.68342 27.0976 10.3166 27.0976 10.7071 26.7071Z" fill="#08A652"/>
</g>
</svg>
