<svg width="36" height="36" viewBox="0 0 36 36" fill="none" xmlns="http://www.w3.org/2000/svg">
<g id="Group 123">
<circle id="Mask" cx="18" cy="18" r="18" fill="#8D8D8D" fill-opacity="0.08"/>
<g id="48x48">
<path id="Path" d="M8.5654 9.36921C8.24718 9.39061 8 9.65497 8 9.97394V27.3518C8 27.7025 8.29678 27.9801 8.64672 27.9565L28.0523 26.6519C28.4755 26.6235 28.7393 26.1802 28.5625 25.7947L24.8865 17.7768C24.8147 17.62 24.813 17.4401 24.8819 17.282L28.5302 8.91378C28.7118 8.49723 28.3874 8.0364 27.934 8.06688L8.5654 9.36921Z" fill="#16A121"/>
<path id="Path_2" d="M8.5654 9.36921C8.24718 9.39061 8 9.65497 8 9.97394V27.3518C8 27.7025 8.29678 27.9801 8.64672 27.9565L28.0523 26.6519C28.4755 26.6235 28.7393 26.1802 28.5625 25.7947L24.8865 17.7768C24.8147 17.62 24.813 17.4401 24.8819 17.282L28.5302 8.91378C28.7118 8.49723 28.3874 8.0364 27.934 8.06688L8.5654 9.36921Z" fill="url(#paint0_linear_2181_161)"/>
<path id="Path_3" d="M8.5654 9.36921C8.24718 9.39061 8 9.65497 8 9.97394V27.3518C8 27.7025 8.29678 27.9801 8.64672 27.9565L28.0523 26.6519C28.4755 26.6235 28.7393 26.1802 28.5625 25.7947L24.8865 17.7768C24.8147 17.62 24.813 17.4401 24.8819 17.282L28.5302 8.91378C28.7118 8.49723 28.3874 8.0364 27.934 8.06688L8.5654 9.36921Z" fill="url(#paint1_radial_2181_161)"/>
<path id="Path_4" d="M8.5654 9.36921C8.24718 9.39061 8 9.65497 8 9.97394V27.3518C8 27.7025 8.29678 27.9801 8.64672 27.9565L28.0523 26.6519C28.4755 26.6235 28.7393 26.1802 28.5625 25.7947L24.8865 17.7768C24.8147 17.62 24.813 17.4401 24.8819 17.282L28.5302 8.91378C28.7118 8.49723 28.3874 8.0364 27.934 8.06688L8.5654 9.36921Z" fill="url(#paint2_radial_2181_161)"/>
<path id="Path_5" d="M8.5654 9.36921C8.24718 9.39061 8 9.65497 8 9.97394V27.3518C8 27.7025 8.29678 27.9801 8.64672 27.9565L28.0523 26.6519C28.4755 26.6235 28.7393 26.1802 28.5625 25.7947L24.8865 17.7768C24.8147 17.62 24.813 17.4401 24.8819 17.282L28.5302 8.91378C28.7118 8.49723 28.3874 8.0364 27.934 8.06688L8.5654 9.36921Z" fill="url(#paint3_radial_2181_161)"/>
<path id="Path_6" d="M8.5654 9.36921C8.24718 9.39061 8 9.65497 8 9.97394V27.3518C8 27.7025 8.29678 27.9801 8.64672 27.9565L28.0523 26.6519C28.4755 26.6235 28.7393 26.1802 28.5625 25.7947L24.8865 17.7768C24.8147 17.62 24.813 17.4401 24.8819 17.282L28.5302 8.91378C28.7118 8.49723 28.3874 8.0364 27.934 8.06688L8.5654 9.36921Z" fill="url(#paint4_radial_2181_161)"/>
<path id="Path_7" d="M8.5654 9.36921C8.24718 9.39061 8 9.65497 8 9.97394V27.3518C8 27.7025 8.29678 27.9801 8.64672 27.9565L28.0523 26.6519C28.4755 26.6235 28.7393 26.1802 28.5625 25.7947L24.8865 17.7768C24.8147 17.62 24.813 17.4401 24.8819 17.282L28.5302 8.91378C28.7118 8.49723 28.3874 8.0364 27.934 8.06688L8.5654 9.36921Z" fill="url(#paint5_radial_2181_161)"/>
<g id="Group">
<path id="Path_8" d="M16.5 14.5C16.5001 14.2897 16.4813 14.0799 16.4439 13.8729L15.6905 14.4282C15.6912 14.452 15.6915 14.476 15.6915 14.5C15.6915 15.9841 14.4841 17.1915 13 17.1915C11.5159 17.1915 10.3085 15.9841 10.3085 14.5C10.3085 13.0159 11.5159 11.8085 13 11.8085C13.5417 11.8079 14.0708 11.9717 14.5174 12.2783L15.1981 11.7765C14.5763 11.273 13.8001 10.9988 13 11C11.067 11 9.5 12.567 9.5 14.5C9.5 16.433 11.067 18 13 18C14.933 18 16.5 16.433 16.5 14.5Z" fill="white"/>
<path id="Path_9" d="M15.7248 12.3534C15.8965 12.5751 16.0419 12.8161 16.1578 13.0715L12.8663 15.4973L11.4911 14.6351V13.598L12.8663 14.4601L15.7248 12.3534Z" fill="white"/>
</g>
</g>
</g>
<defs>
<linearGradient id="paint0_linear_2181_161" x1="8.09945" y1="8" x2="8.09945" y2="28" gradientUnits="userSpaceOnUse">
<stop stop-color="#4DC337"/>
<stop offset="1" stop-color="#79D922"/>
</linearGradient>
<radialGradient id="paint1_radial_2181_161" cx="0" cy="0" r="1" gradientUnits="userSpaceOnUse" gradientTransform="translate(25.3399 18.9769) rotate(140.113) scale(15.2331 15.1459)">
<stop offset="0.0291242" stop-color="#43E9AA"/>
<stop offset="1" stop-color="#43E9AA" stop-opacity="0.01"/>
</radialGradient>
<radialGradient id="paint2_radial_2181_161" cx="0" cy="0" r="1" gradientUnits="userSpaceOnUse" gradientTransform="translate(8.90556 8) rotate(57.4259) scale(11.8362 12.0221)">
<stop stop-color="#3DE9AF"/>
<stop offset="1" stop-color="#3FE9AF" stop-opacity="0.01"/>
</radialGradient>
<radialGradient id="paint3_radial_2181_161" cx="0" cy="0" r="1" gradientUnits="userSpaceOnUse" gradientTransform="translate(28.6435 27.4602) rotate(-126.898) scale(13.6427 13.7879)">
<stop stop-color="#15A214"/>
<stop offset="1" stop-color="#15A214" stop-opacity="0.01"/>
</radialGradient>
<radialGradient id="paint4_radial_2181_161" cx="0" cy="0" r="1" gradientUnits="userSpaceOnUse" gradientTransform="translate(27.9868 8) rotate(118.409) scale(17.6507 18.0082)">
<stop offset="0.228758" stop-color="#0087CD"/>
<stop offset="1" stop-color="#049CEE" stop-opacity="0.01"/>
</radialGradient>
<radialGradient id="paint5_radial_2181_161" cx="0" cy="0" r="1" gradientUnits="userSpaceOnUse" gradientTransform="translate(8.96794 27.1) rotate(-50.6453) scale(10.3138 10.3928)">
<stop stop-color="#FEF600"/>
<stop offset="1" stop-color="#FEF600" stop-opacity="0.01"/>
</radialGradient>
</defs>
</svg>
